<svg width="93" height="93" viewBox="0 0 93 93" fill="none" xmlns="http://www.w3.org/2000/svg">
<circle cx="46.5" cy="46.5" r="46.5" fill="white" fill-opacity="0.42"/>
<path d="M43.482 64.0696L60.6708 54.2117C62.8773 52.9462 64.1947 50.6786 64.1947 48.1462C64.1947 45.6138 62.8773 43.3461 60.6708 42.0806L43.482 32.2227C41.2736 30.9558 38.6382 30.9584 36.4317 32.2296C34.2333 33.4964 32.9203 35.7615 32.9203 38.2883V58.0041C32.9203 60.5308 34.2333 62.7959 36.4317 64.0627C37.5368 64.6996 38.7497 65.0177 39.9631 65.0177C41.1715 65.0177 42.38 64.7021 43.482 64.0696Z" fill="white"/>
<path d="M43.482 64.0696L60.6708 54.2117C62.8773 52.9462 64.1947 50.6786 64.1947 48.1462C64.1947 45.6138 62.8773 43.3461 60.6708 42.0806L43.482 32.2227C41.2736 30.9558 38.6382 30.9584 36.4317 32.2296C34.2333 33.4964 32.9203 35.7615 32.9203 38.2883V58.0041C32.9203 60.5308 34.2333 62.7959 36.4317 64.0627C37.5368 64.6996 38.7497 65.0177 39.9631 65.0177C41.1715 65.0177 42.38 64.7021 43.482 64.0696Z" stroke="white"/>
</svg>
