<svg width="148" height="32" viewBox="0 0 148 32" fill="none" xmlns="http://www.w3.org/2000/svg">
<rect y="25" width="148" height="4" rx="2" fill="#111111"/>
<rect y="25" width="111" height="4" rx="2" fill="#FF0207"/>
<rect x="109" y="22" width="2" height="10" fill="#FF0207"/>
<path d="M12.78 8.62C12.78 7.244 12.992 6.176 13.416 5.416C13.84 4.656 14.6 4.276 15.696 4.276C16.792 4.276 17.552 4.656 17.976 5.416C18.4 6.176 18.612 7.244 18.612 8.62C18.612 10.02 18.4 11.104 17.976 11.872C17.552 12.64 16.792 13.024 15.696 13.024C14.592 13.024 13.828 12.64 13.404 11.872C12.988 11.104 12.78 10.02 12.78 8.62ZM17.784 8.62C17.784 7.876 17.732 7.248 17.628 6.736C17.524 6.224 17.32 5.812 17.016 5.5C16.712 5.188 16.272 5.032 15.696 5.032C15.12 5.032 14.68 5.188 14.376 5.5C14.072 5.812 13.868 6.224 13.764 6.736C13.66 7.248 13.608 7.876 13.608 8.62C13.608 9.388 13.66 10.032 13.764 10.552C13.868 11.064 14.072 11.476 14.376 11.788C14.68 12.1 15.12 12.256 15.696 12.256C16.272 12.256 16.712 12.1 17.016 11.788C17.32 11.476 17.524 11.064 17.628 10.552C17.732 10.032 17.784 9.388 17.784 8.62ZM20.0065 12.34C21.4785 11.236 22.6145 10.248 23.4145 9.376C24.2225 8.496 24.6265 7.636 24.6265 6.796C24.6265 6.244 24.4865 5.804 24.2065 5.476C23.9345 5.14 23.4865 4.972 22.8625 4.972C22.2545 4.972 21.7825 5.164 21.4465 5.548C21.1185 5.924 20.9345 6.428 20.8945 7.06H20.0785C20.1265 6.172 20.3985 5.484 20.8945 4.996C21.3985 4.5 22.0545 4.252 22.8625 4.252C23.6385 4.252 24.2665 4.472 24.7465 4.912C25.2265 5.344 25.4665 5.96 25.4665 6.76C25.4665 7.728 25.0625 8.668 24.2545 9.58C23.4545 10.484 22.4665 11.368 21.2905 12.232H25.7305V12.94H20.0065V12.34ZM27.3657 13.06C27.1897 13.06 27.0417 13 26.9217 12.88C26.8097 12.76 26.7537 12.612 26.7537 12.436C26.7537 12.26 26.8097 12.116 26.9217 12.004C27.0417 11.884 27.1897 11.824 27.3657 11.824C27.5337 11.824 27.6737 11.884 27.7857 12.004C27.9057 12.116 27.9657 12.26 27.9657 12.436C27.9657 12.612 27.9057 12.76 27.7857 12.88C27.6737 13 27.5337 13.06 27.3657 13.06ZM27.3657 7.84C27.1897 7.84 27.0417 7.78 26.9217 7.66C26.8097 7.54 26.7537 7.392 26.7537 7.216C26.7537 7.04 26.8097 6.896 26.9217 6.784C27.0417 6.664 27.1897 6.604 27.3657 6.604C27.5337 6.604 27.6737 6.664 27.7857 6.784C27.9057 6.896 27.9657 7.04 27.9657 7.216C27.9657 7.392 27.9057 7.54 27.7857 7.66C27.6737 7.78 27.5337 7.84 27.3657 7.84ZM34.6806 5.116H30.2886V8.188C30.4886 7.908 30.7806 7.68 31.1646 7.504C31.5486 7.32 31.9646 7.228 32.4126 7.228C33.0686 7.228 33.6046 7.364 34.0206 7.636C34.4366 7.9 34.7366 8.248 34.9206 8.68C35.1046 9.104 35.1966 9.56 35.1966 10.048C35.1966 10.608 35.0886 11.116 34.8726 11.572C34.6646 12.02 34.3406 12.376 33.9006 12.64C33.4686 12.904 32.9286 13.036 32.2806 13.036C31.4566 13.036 30.7886 12.824 30.2766 12.4C29.7646 11.968 29.4526 11.388 29.3406 10.66H30.1686C30.2726 11.188 30.5126 11.596 30.8886 11.884C31.2646 12.172 31.7286 12.316 32.2806 12.316C32.9766 12.316 33.5006 12.112 33.8526 11.704C34.2126 11.288 34.3926 10.74 34.3926 10.06C34.3926 9.396 34.2126 8.88 33.8526 8.512C33.4926 8.136 32.9766 7.948 32.3046 7.948C31.8406 7.948 31.4326 8.056 31.0806 8.272C30.7286 8.488 30.4686 8.78 30.3006 9.148H29.5086V4.384H34.6806V5.116ZM41.6068 6.496C41.4308 5.456 40.8268 4.936 39.7948 4.936C39.0108 4.936 38.4228 5.24 38.0308 5.848C37.6388 6.456 37.4588 7.452 37.4908 8.836C37.6508 8.356 37.9548 7.98 38.4028 7.708C38.8588 7.428 39.3788 7.288 39.9628 7.288C40.8028 7.288 41.4668 7.548 41.9548 8.068C42.4508 8.58 42.6988 9.288 42.6988 10.192C42.6988 10.72 42.5948 11.2 42.3868 11.632C42.1868 12.056 41.8748 12.396 41.4508 12.652C41.0348 12.908 40.5148 13.036 39.8908 13.036C38.6988 13.036 37.8748 12.656 37.4188 11.896C36.9708 11.136 36.7468 10.06 36.7468 8.668C36.7468 5.708 37.7628 4.228 39.7948 4.228C40.5628 4.228 41.1668 4.44 41.6068 4.864C42.0468 5.28 42.3068 5.824 42.3868 6.496H41.6068ZM39.8068 8.008C39.4308 8.008 39.0748 8.084 38.7388 8.236C38.4028 8.388 38.1268 8.62 37.9108 8.932C37.7028 9.236 37.5988 9.612 37.5988 10.06C37.5988 10.708 37.7908 11.248 38.1748 11.68C38.5588 12.112 39.1188 12.328 39.8548 12.328C40.4708 12.328 40.9628 12.14 41.3308 11.764C41.6988 11.388 41.8828 10.876 41.8828 10.228C41.8828 9.532 41.7028 8.988 41.3428 8.596C40.9828 8.204 40.4708 8.008 39.8068 8.008ZM44.5337 13.06C44.3577 13.06 44.2097 13 44.0897 12.88C43.9777 12.76 43.9217 12.612 43.9217 12.436C43.9217 12.26 43.9777 12.116 44.0897 12.004C44.2097 11.884 44.3577 11.824 44.5337 11.824C44.7017 11.824 44.8417 11.884 44.9537 12.004C45.0737 12.116 45.1337 12.26 45.1337 12.436C45.1337 12.612 45.0737 12.76 44.9537 12.88C44.8417 13 44.7017 13.06 44.5337 13.06ZM44.5337 7.84C44.3577 7.84 44.2097 7.78 44.0897 7.66C43.9777 7.54 43.9217 7.392 43.9217 7.216C43.9217 7.04 43.9777 6.896 44.0897 6.784C44.2097 6.664 44.3577 6.604 44.5337 6.604C44.7017 6.604 44.8417 6.664 44.9537 6.784C45.0737 6.896 45.1337 7.04 45.1337 7.216C45.1337 7.392 45.0737 7.54 44.9537 7.66C44.8417 7.78 44.7017 7.84 44.5337 7.84ZM46.0165 5.152V4.396H48.0565V13H47.2045V5.152H46.0165ZM49.5204 5.152V4.396H51.5604V13H50.7084V5.152H49.5204Z" fill="white" fill-opacity="0.6"/>
</svg>
