<svg width="24" height="6" viewBox="0 0 24 6" fill="none" xmlns="http://www.w3.org/2000/svg">
<path d="M6.75 3C6.75 1.34315 5.40685 -2.03558e-07 3.75 -1.31134e-07C2.09315 -5.87108e-08 0.75 1.34315 0.75 3C0.75 4.65685 2.09315 6 3.75 6C5.40685 6 6.75 4.65685 6.75 3Z" fill="white"/>
<path d="M15 3C15 1.34315 13.6569 -2.03558e-07 12 -1.31134e-07C10.3431 -5.87108e-08 9 1.34315 9 3C9 4.65685 10.3431 6 12 6C13.6569 6 15 4.65685 15 3Z" fill="white"/>
<path d="M23.25 3C23.25 1.34315 21.9069 -2.03558e-07 20.25 -1.31134e-07C18.5931 -5.87108e-08 17.25 1.34315 17.25 3C17.25 4.65685 18.5931 6 20.25 6C21.9069 6 23.25 4.65685 23.25 3Z" fill="white"/>
</svg>
