<svg width="37" height="40" viewBox="0 0 37 40" fill="none" xmlns="http://www.w3.org/2000/svg">
<path d="M12.4952 38.8761L32.8309 27.1904C35.4414 25.6902 37 23.0021 37 20.0001C37 16.9982 35.4414 14.3101 32.8309 12.8099L12.4952 1.12415C9.88251 -0.377564 6.76466 -0.374589 4.15416 1.13234C1.55334 2.63406 0 5.31915 0 8.3144V31.6859C0 34.6811 1.55334 37.3662 4.15416 38.8679C5.46164 39.6229 6.89652 40 8.33215 40C9.76182 40 11.1915 39.6259 12.4952 38.8761Z" fill="white"/>
<path d="M12.4952 38.8761L32.8309 27.1904C35.4414 25.6902 37 23.0021 37 20.0001C37 16.9982 35.4414 14.3101 32.8309 12.8099L12.4952 1.12415C9.88251 -0.377564 6.76466 -0.374589 4.15416 1.13234C1.55334 2.63406 0 5.31915 0 8.3144V31.6859C0 34.6811 1.55334 37.3662 4.15416 38.8679C5.46164 39.6229 6.89652 40 8.33215 40C9.76182 40 11.1915 39.6259 12.4952 38.8761Z" stroke="white"/>
</svg>
