<svg width="73" height="74" viewBox="0 0 73 74" fill="none" xmlns="http://www.w3.org/2000/svg">
<circle cx="36.5" cy="37.1182" r="36.5" fill="#FF0207"/>
<path d="M34.1311 50.9093L47.6234 43.1714C49.3554 42.178 50.3895 40.398 50.3895 38.4102C50.3895 36.4224 49.3554 34.6425 47.6234 33.649L34.1311 25.9111C32.3976 24.9167 30.329 24.9187 28.597 25.9165C26.8714 26.9109 25.8408 28.6889 25.8408 30.6723V46.1481C25.8408 48.1315 26.8714 49.9095 28.597 50.9039C29.4645 51.4038 30.4165 51.6535 31.369 51.6535C32.3176 51.6535 33.2661 51.4057 34.1311 50.9093Z" fill="white"/>
<path d="M34.1311 50.9093L47.6234 43.1714C49.3554 42.178 50.3895 40.398 50.3895 38.4102C50.3895 36.4224 49.3554 34.6425 47.6234 33.649L34.1311 25.9111C32.3976 24.9167 30.329 24.9187 28.597 25.9165C26.8714 26.9109 25.8408 28.6889 25.8408 30.6723V46.1481C25.8408 48.1315 26.8714 49.9095 28.597 50.9039C29.4645 51.4038 30.4165 51.6535 31.369 51.6535C32.3176 51.6535 33.2661 51.4057 34.1311 50.9093Z" stroke="white"/>
</svg>
