<svg width="15" height="16" viewBox="0 0 15 16" fill="none" xmlns="http://www.w3.org/2000/svg">
<path d="M1.39377 6.68177H14.0216C14.2659 6.68177 14.4774 6.61659 14.6558 6.48612C14.8342 6.35569 14.9237 6.20124 14.9237 6.02273C14.9237 5.84422 14.8342 5.68984 14.6558 5.55923L8.3419 0.945643C8.1635 0.815359 7.95217 0.75 7.70772 0.75C7.46327 0.75 7.25195 0.815359 7.0734 0.945643L0.759447 5.55923C0.580899 5.6897 0.491699 5.84422 0.491699 6.02273C0.491699 6.20121 0.580899 6.35569 0.759447 6.48612C0.938193 6.61659 1.14952 6.68177 1.39377 6.68177Z" fill="#3E4954"/>
<path d="M14.0216 9.31836H1.39377C1.14932 9.31836 0.937996 9.38357 0.759447 9.51389C0.580899 9.64436 0.491699 9.79877 0.491699 9.97728C0.491699 10.1558 0.580899 10.3103 0.759447 10.4407L7.0734 15.0542C7.25214 15.1847 7.46347 15.25 7.70772 15.25C7.95197 15.25 8.1635 15.1847 8.3419 15.0542L14.6558 10.4407C14.8342 10.3103 14.9237 10.1558 14.9237 9.97725C14.9237 9.79877 14.8342 9.64436 14.6558 9.51386C14.4774 9.38343 14.2659 9.31836 14.0216 9.31836Z" fill="#D3D6E4"/>
</svg>
