<svg width="205" height="45" viewBox="0 0 205 45" fill="none" xmlns="http://www.w3.org/2000/svg">
<path d="M11.8327 1.77078C10.9531 0.24673 8.93704 -0.181375 7.62934 0.965944C3.30925 4.75895 0.561523 10.4185 0.561523 16.7544H20.4884L11.8327 1.77078ZM39.1698 8.53483H35.4336C32.6858 8.53483 30.4518 10.9921 30.4518 14.0146V19.4943H0.561523C0.561523 23.8267 2.35183 27.7481 5.25524 30.6849C2.562 31.447 0.561523 34.1098 0.561523 37.3034C0.561523 41.0879 3.34817 44.1531 6.78867 44.1531C10.2292 44.1531 13.0158 41.0879 13.0158 37.3034C13.0158 36.5414 12.8757 35.8308 12.6733 35.1458C14.3547 35.6509 16.145 35.9335 17.9975 35.9335C19.8501 35.9335 21.6482 35.6509 23.3218 35.1458C23.1116 35.8308 22.9793 36.5414 22.9793 37.3034C22.9793 41.0879 25.7659 44.1531 29.2064 44.1531C32.6469 44.1531 35.4336 41.0879 35.4336 37.3034C35.4336 34.1098 33.4331 31.447 30.7398 30.6849C33.6433 27.7481 35.4336 23.8267 35.4336 19.4943V14.0146H39.1698C39.8548 14.0146 40.4153 13.3981 40.4153 12.6446V9.90476C40.4153 9.1513 39.8548 8.53483 39.1698 8.53483ZM6.78867 40.0433C5.4187 40.0433 4.29781 38.8104 4.29781 37.3034C4.29781 35.7965 5.4187 34.5636 6.78867 34.5636C8.15865 34.5636 9.27953 35.7965 9.27953 37.3034C9.27953 38.8104 8.15865 40.0433 6.78867 40.0433ZM31.6973 37.3034C31.6973 38.8104 30.5764 40.0433 29.2064 40.0433C27.8364 40.0433 26.7156 38.8104 26.7156 37.3034C26.7156 35.7965 27.8364 34.5636 29.2064 34.5636C30.5764 34.5636 31.6973 35.7965 31.6973 37.3034Z" fill="white" fill-opacity="0.21"/>
<path d="M63.4456 10.197H71.1192C74.6159 10.197 77.1513 10.6973 78.7254 11.698C80.3108 12.6874 81.1034 14.2671 81.1034 16.4371C81.1034 17.91 80.7549 19.1187 80.0578 20.0631C79.3719 21.0076 78.4556 21.5754 77.3087 21.7665V21.9352C78.8716 22.2837 79.9959 22.9358 80.6818 23.8915C81.3789 24.8472 81.7274 26.1177 81.7274 27.7031C81.7274 29.9517 80.9123 31.7057 79.282 32.965C77.6629 34.2243 75.4592 34.8539 72.6708 34.8539H63.4456V10.197ZM68.6738 19.9619H71.7095C73.1262 19.9619 74.1493 19.7427 74.779 19.3042C75.4198 18.8657 75.7403 18.1405 75.7403 17.1286C75.7403 16.1841 75.3917 15.5095 74.6946 15.1048C74.0088 14.6887 72.9182 14.4807 71.4228 14.4807H68.6738V19.9619ZM68.6738 24.1108V30.5364H72.0805C73.5197 30.5364 74.5822 30.2609 75.2681 29.71C75.9539 29.1591 76.2968 28.3158 76.2968 27.1802C76.2968 25.1339 74.8352 24.1108 71.9119 24.1108H68.6738Z" fill="white" fill-opacity="0.21"/>
<path d="M100.853 34.8539H86.6521V10.197H100.853V14.4807H91.8803V19.8945H100.229V24.1782H91.8803V30.5364H100.853V34.8539Z" fill="white" fill-opacity="0.21"/>
<path d="M106.013 10.197H113.687C117.184 10.197 119.719 10.6973 121.293 11.698C122.879 12.6874 123.671 14.2671 123.671 16.4371C123.671 17.91 123.323 19.1187 122.626 20.0631C121.94 21.0076 121.023 21.5754 119.876 21.7665V21.9352C121.439 22.2837 122.564 22.9358 123.25 23.8915C123.947 24.8472 124.295 26.1177 124.295 27.7031C124.295 29.9517 123.48 31.7057 121.85 32.965C120.231 34.2243 118.027 34.8539 115.239 34.8539H106.013V10.197ZM111.242 19.9619H114.277C115.694 19.9619 116.717 19.7427 117.347 19.3042C117.988 18.8657 118.308 18.1405 118.308 17.1286C118.308 16.1841 117.959 15.5095 117.262 15.1048C116.577 14.6887 115.486 14.4807 113.991 14.4807H111.242V19.9619ZM111.242 24.1108V30.5364H114.648C116.087 30.5364 117.15 30.2609 117.836 29.71C118.522 29.1591 118.865 28.3158 118.865 27.1802C118.865 25.1339 117.403 24.1108 114.48 24.1108H111.242Z" fill="white" fill-opacity="0.21"/>
<path d="M136.893 20.3498L142.037 10.197H147.67L139.491 25.2576V34.8539H134.296V25.4263L126.117 10.197H131.783L136.893 20.3498Z" fill="white" fill-opacity="0.21"/>
<path d="M149.644 32.4422C149.644 31.4977 149.897 30.7838 150.403 30.3003C150.908 29.8168 151.645 29.5751 152.612 29.5751C153.545 29.5751 154.265 29.8224 154.771 30.3172C155.288 30.8119 155.546 31.5202 155.546 32.4422C155.546 33.3304 155.288 34.0331 154.771 34.5503C154.253 35.0563 153.534 35.3093 152.612 35.3093C151.667 35.3093 150.937 35.0619 150.419 34.5672C149.902 34.0612 149.644 33.3529 149.644 32.4422Z" fill="white" fill-opacity="0.21"/>
<path d="M171.467 12.4063C168.757 12.4063 166.616 13.3114 165.041 15.1216C163.479 16.9206 162.697 19.3885 162.697 22.5254C162.697 25.7523 163.451 28.2484 164.957 30.0136C166.475 31.7676 168.634 32.6446 171.433 32.6446C173.154 32.6446 175.116 32.3354 177.319 31.717V34.2299C175.61 34.8708 173.502 35.1912 170.995 35.1912C167.363 35.1912 164.558 34.0893 162.579 31.8856C160.612 29.6819 159.628 26.5506 159.628 22.4917C159.628 19.9507 160.1 17.7245 161.044 15.8131C162 13.9017 163.372 12.4288 165.16 11.3944C166.959 10.36 169.072 9.84281 171.501 9.84281C174.087 9.84281 176.347 10.315 178.281 11.2595L177.066 13.7218C175.2 12.8448 173.334 12.4063 171.467 12.4063Z" fill="white" fill-opacity="0.21"/>
<path d="M204.101 22.4917C204.101 26.4382 203.101 29.5414 201.099 31.8013C199.109 34.0612 196.338 35.1912 192.785 35.1912C189.153 35.1912 186.348 34.0837 184.369 31.8688C182.401 29.6426 181.418 26.5056 181.418 22.458C181.418 18.4441 182.407 15.3352 184.386 13.1315C186.365 10.9166 189.176 9.80908 192.818 9.80908C196.36 9.80908 199.126 10.9334 201.116 13.1821C203.106 15.4308 204.101 18.534 204.101 22.4917ZM184.453 22.4917C184.453 25.831 185.162 28.3664 186.578 30.0979C188.006 31.8182 190.075 32.6783 192.785 32.6783C195.517 32.6783 197.58 31.8182 198.974 30.0979C200.368 28.3777 201.066 25.8423 201.066 22.4917C201.066 19.1749 200.368 16.662 198.974 14.953C197.591 13.2327 195.539 12.3726 192.818 12.3726C190.086 12.3726 188.006 13.2383 186.578 14.9698C185.162 16.6901 184.453 19.1974 184.453 22.4917Z" fill="white" fill-opacity="0.21"/>
</svg>
