<svg width="173" height="54" viewBox="0 0 173 54" fill="none" xmlns="http://www.w3.org/2000/svg">
<path d="M35.91 29.7502C35.91 33.253 35.9723 35.5025 36.0969 36.4989H30.002V12.0962H35.91V14.1979C38.0428 12.4854 40.2301 11.6292 42.4719 11.6292C45.1184 11.6292 47.0411 12.7734 48.2398 15.0619C49.4385 13.8321 50.4349 13.0225 51.2288 12.6333C52.5521 11.9639 53.8754 11.6292 55.1986 11.6292C56.5375 11.6292 57.6739 11.8549 58.608 12.3064C59.5421 12.7579 60.3127 13.3962 60.9198 14.2213C62.1497 15.887 62.7646 18.1755 62.7646 21.0867V30.3807C62.7646 33.0117 62.8035 34.5918 62.8814 35.1211C62.9592 35.6504 63.0604 35.9929 63.185 36.1486C63.3251 36.3043 63.4418 36.4444 63.5352 36.5689L63.4885 36.6623C62.2431 36.5534 61.3246 36.4989 60.733 36.4989H58.9816C58.4056 36.4989 57.6973 36.5222 56.8566 36.5689V23.9356C56.8566 20.2927 56.2962 18.1288 55.1753 17.4438C54.8017 17.2259 54.358 17.1169 53.8442 17.1169C53.3461 17.1169 52.9024 17.1791 52.5132 17.3037C52.124 17.4127 51.7581 17.5995 51.4156 17.8641C50.8396 18.2845 50.1858 19.1096 49.4541 20.3394C49.4697 20.464 49.4774 20.5885 49.4774 20.7131C49.4774 20.8376 49.4774 22.8926 49.4774 26.8779C49.4774 30.8633 49.5709 34.0703 49.7577 36.4989C48.4344 36.4989 47.3057 36.4989 46.3717 36.4989C45.4531 36.4989 44.5736 36.5222 43.7329 36.5689V23.9123C43.7329 21.3747 43.5772 19.7245 43.2659 18.9617C42.9701 18.1988 42.6509 17.7007 42.3084 17.4672C41.9659 17.2336 41.5456 17.1169 41.0474 17.1169C38.9925 17.1169 37.28 18.1054 35.91 20.0826V29.7502Z" fill="white" fill-opacity="0.21"/>
<path d="M85.6494 35.0511C83.4388 36.2498 81.4383 36.8492 79.648 36.8492C77.8577 36.8492 76.3242 36.6857 75.0477 36.3588C73.7711 36.0163 72.6891 35.5181 71.8018 34.8643C69.9959 33.541 69.093 31.6261 69.093 29.1197C69.093 26.8779 70.1983 25.0098 72.4089 23.5153C74.8064 21.8962 78.0601 21.0867 82.17 21.0867L83.104 21.11C83.2909 21.1256 83.501 21.1412 83.7346 21.1567C83.9681 21.1567 84.1782 21.1723 84.365 21.2034C84.2405 18.7126 83.1663 17.257 81.1425 16.8367C80.4731 16.6965 79.757 16.6265 78.9941 16.6265C78.2469 16.6265 77.5074 16.6965 76.7757 16.8367C76.0596 16.9612 75.359 17.1324 74.674 17.3504C73.164 17.833 72.082 18.3857 71.4281 19.0084L71.3581 18.9617L70.6575 13.8009C73.413 12.3531 76.4254 11.6292 79.6947 11.6292C84.7698 11.6292 88.0157 13.4584 89.4324 17.1169C89.8839 18.2845 90.1096 19.6 90.1096 21.0633V29.5167C90.1096 31.3226 90.7479 32.5524 92.0244 33.2063L87.7978 37.0827C86.9104 36.6156 86.1943 35.9384 85.6494 35.0511ZM84.3884 25.4068C83.9681 25.3289 83.5322 25.29 83.0807 25.29H82.1466C78.7061 25.29 76.5188 26.0528 75.5848 27.5785C75.3045 28.03 75.1644 28.5048 75.1644 29.0029C75.1644 29.5011 75.2501 29.9448 75.4213 30.334C75.6081 30.7076 75.9117 31.019 76.332 31.2681C77.1416 31.7351 78.3403 31.9686 79.9282 31.9686C81.5317 31.9686 83.0262 31.5872 84.4118 30.8244C84.3962 30.6531 84.3884 30.4741 84.3884 30.2873V25.4068Z" fill="white" fill-opacity="0.21"/>
<path d="M96.2044 5.30086C97.2163 3.6818 98.3761 2.15615 99.6838 0.723906L104.144 4.25003C103.366 5.24637 102.836 5.93136 102.556 6.30499L101.739 7.44923C101.474 7.80729 101.194 8.21205 100.898 8.66352L96.2044 5.30086ZM93.6124 40.1184C95.9164 40.1184 97.0684 38.4059 97.0684 34.981V12.0962H102.743V33.2997C102.743 39.8382 100.883 43.7068 97.1618 44.9055C95.9475 45.2947 94.5698 45.4893 93.0286 45.4893L90.6 39.3478L90.6467 39.231C91.5341 39.8226 92.5226 40.1184 93.6124 40.1184Z" fill="white" fill-opacity="0.21"/>
<path d="M108.674 5.1374C109.92 3.19141 111.22 1.47895 112.574 0L117.595 3.94646C116.925 4.77155 116.303 5.58108 115.727 6.37504C115.727 6.37504 115.127 7.22349 113.928 8.92039L108.674 5.1374ZM114.816 33.8835C114.816 35.2223 114.847 36.0941 114.909 36.4989H108.978V12.0962H114.816V33.8835Z" fill="white" fill-opacity="0.21"/>
<path d="M127.566 33.5098C127.566 34.8798 127.628 35.8762 127.753 36.4989H121.891V12.0962H127.566V14.1745C129.621 12.4777 131.816 11.6292 134.151 11.6292C136.704 11.6292 138.744 12.501 140.269 14.2446C141.795 15.9726 142.558 18.2533 142.558 21.0867V30.3807C142.558 33.0117 142.597 34.5918 142.675 35.1211C142.752 35.6504 142.854 35.9929 142.978 36.1486C143.118 36.3043 143.235 36.4444 143.328 36.5689L143.282 36.6623C142.021 36.5534 141.102 36.4989 140.526 36.4989H138.892C138.393 36.4989 137.724 36.5222 136.883 36.5689V23.8422C136.883 19.2808 135.498 17.0001 132.727 17.0001C130.672 17.0001 128.951 18.0587 127.566 20.176V33.5098Z" fill="white" fill-opacity="0.21"/>
<path d="M148.232 24.496C148.232 22.6746 148.544 20.9855 149.166 19.4287C149.789 17.8719 150.669 16.5097 151.805 15.3421C154.234 12.8668 157.41 11.6292 161.333 11.6292C164.649 11.6292 167.311 12.7267 169.319 14.9218C171.296 17.039 172.285 19.7011 172.285 22.9081C172.285 24.138 172.191 24.9787 172.004 25.4301C170.448 25.866 167.28 26.084 162.5 26.084H154.28C154.685 27.7497 155.627 29.0497 157.106 29.9837C158.585 30.9022 160.508 31.3615 162.874 31.3615C165.349 31.3615 167.474 30.9178 169.249 30.0304C169.716 29.7969 170.066 29.579 170.3 29.3766C170.269 30.0304 170.23 30.6998 170.183 31.3848L169.926 35.0277C168.743 35.8372 166.828 36.3977 164.182 36.709C163.403 36.8025 162.656 36.8492 161.94 36.8492C157.986 36.8492 154.716 35.6971 152.132 33.3931C149.532 31.0735 148.232 28.1078 148.232 24.496ZM166.073 21.5537C165.435 18.2066 163.613 16.5331 160.609 16.5331C158.242 16.5331 156.444 17.5528 155.214 19.5922C154.841 20.2149 154.553 20.8999 154.35 21.6471C154.724 21.6627 155.183 21.6783 155.728 21.6938H157.456C158.032 21.7094 158.585 21.7172 159.114 21.7172H160.445C161.239 21.7172 162.018 21.7094 162.78 21.6938L164.695 21.6238C165.209 21.6082 165.668 21.5849 166.073 21.5537Z" fill="white" fill-opacity="0.21"/>
<path d="M6.62687 12.7061C8.83751 11.5073 10.838 10.908 12.6283 10.908C14.4186 10.908 15.952 11.0714 17.2286 11.3984C18.5052 11.7409 19.5871 12.239 20.4745 12.8929C22.2804 14.2162 23.1833 16.131 23.1833 18.6374C23.1833 20.8792 22.078 22.7473 19.8674 24.2419C17.4699 25.8609 14.2162 26.6704 10.1063 26.6704L9.17222 26.6471C8.98541 26.6315 8.77524 26.616 8.54172 26.6004C8.30821 26.6004 8.09804 26.5848 7.91123 26.5537C8.03577 29.0445 9.10995 30.5001 11.1338 30.9205C11.8032 31.0606 12.5193 31.1306 13.2821 31.1306C14.0294 31.1306 14.7689 31.0606 15.5006 30.9205C16.2167 30.7959 16.9172 30.6247 17.6022 30.4067C19.1123 29.9241 20.1943 29.3715 20.8481 28.7488L20.9182 28.7955L21.6187 33.9562C18.8632 35.404 15.8508 36.1279 12.5816 36.1279C7.50646 36.1279 4.26056 34.2987 2.84388 30.6403C2.39241 29.4727 2.16668 28.1572 2.16668 26.6938V18.2404C2.16668 16.4346 1.5284 15.2047 0.251831 14.5509L4.47851 10.6745C5.36588 11.1415 6.082 11.8187 6.62687 12.7061ZM7.88787 22.3504C8.30821 22.4282 8.74411 22.4671 9.19557 22.4671H10.1296C13.5701 22.4671 15.7574 21.7043 16.6915 20.1786C16.9717 19.7272 17.1118 19.2524 17.1118 18.7542C17.1118 18.256 17.0262 17.8123 16.855 17.4231C16.6682 17.0495 16.3646 16.7381 15.9442 16.4891C15.1347 16.022 13.936 15.7885 12.3481 15.7885C10.7446 15.7885 9.25006 16.1699 7.86452 16.9327C7.88009 17.104 7.88787 17.283 7.88787 17.4698V22.3504Z" fill="white" fill-opacity="0.21"/>
<path d="M7.41261 49.6224C6.37502 48.5848 6.37502 46.9025 7.41261 45.8649L9.68042 43.5971C10.718 42.5595 12.4003 42.5595 13.4378 43.5971L15.7057 45.8649C16.7432 46.9025 16.7432 48.5848 15.7057 49.6224L13.4378 51.8902C12.4003 52.9278 10.718 52.9278 9.68042 51.8902L7.41261 49.6224Z" fill="white" fill-opacity="0.21"/>
</svg>
