<svg width="170" height="33" viewBox="0 0 170 33" fill="none" xmlns="http://www.w3.org/2000/svg">
<path d="M57.117 16.3529H66.6121L63.8799 29.2042C62.3733 29.7214 60.9735 30.07 59.6805 30.2499C58.3987 30.441 57.0383 30.5366 55.5991 30.5366C52.6871 30.5366 50.4384 29.7102 48.853 28.0574C47.2677 26.4046 46.475 24.0322 46.475 20.9403C46.475 17.927 47.0766 15.2061 48.2796 12.7775C49.4827 10.3377 51.1748 8.46004 53.356 7.14455C55.5373 5.81782 58.0558 5.15446 60.9116 5.15446C63.3627 5.15446 65.6676 5.71101 67.8264 6.82411L65.8869 11.0573C65.0549 10.6075 64.2228 10.2477 63.3908 9.97791C62.5588 9.70806 61.6537 9.57314 60.6755 9.57314C58.9553 9.57314 57.4149 10.0397 56.0545 10.973C54.7053 11.9062 53.6427 13.2385 52.8669 14.97C52.1024 16.6903 51.7201 18.5454 51.7201 20.5355C51.7201 22.4694 52.1249 23.8917 52.9344 24.8024C53.7552 25.7019 55.0088 26.1516 56.6953 26.1516C57.5498 26.1516 58.5055 26.0167 59.5624 25.7469L60.6755 20.7042H56.1725L57.117 16.3529Z" fill="white" fill-opacity="0.21"/>
<path d="M73.9484 30.1993H68.872L74.4375 3.95703H79.514L73.9484 30.1993Z" fill="white" fill-opacity="0.21"/>
<path d="M92.0785 18.4611C92.0785 16.2461 91.2746 15.1387 89.6668 15.1387C88.8235 15.1387 88.0646 15.4816 87.39 16.1674C86.7266 16.8533 86.1813 17.8596 85.7541 19.1863C85.3381 20.513 85.1301 21.8791 85.1301 23.2845C85.1301 25.3646 85.9733 26.4046 87.6598 26.4046C88.5031 26.4046 89.262 26.0617 89.9366 25.3758C90.6113 24.6787 91.1341 23.7174 91.5051 22.4919C91.8874 21.2551 92.0785 19.9115 92.0785 18.4611ZM97.1887 18.4611C97.1887 20.8335 96.7895 22.936 95.9913 24.7687C95.2042 26.6014 94.063 28.0237 92.5676 29.0356C91.0722 30.0362 89.2958 30.5366 87.2382 30.5366C85.0457 30.5366 83.2918 29.8788 81.9763 28.5634C80.672 27.2366 80.0199 25.477 80.0199 23.2845C80.0199 20.8897 80.4191 18.7591 81.2173 16.8926C82.0269 15.015 83.1906 13.5646 84.7084 12.5414C86.2263 11.507 88.0028 10.9898 90.0378 10.9898C92.2416 10.9898 93.9843 11.6532 95.266 12.9799C96.5478 14.3066 97.1887 16.1337 97.1887 18.4611Z" fill="white" fill-opacity="0.21"/>
<path d="M113.143 15.6952C112.446 17.6965 111.755 19.4899 111.069 21.0752L107.139 30.1993H101.675L100.815 11.344H105.554L105.621 19.6923L105.554 22.5087L105.436 25.3927H105.503C105.571 25.1678 105.649 24.9373 105.739 24.7012C105.829 24.4539 106.116 23.6837 106.599 22.3907C107.083 21.0977 107.342 20.4287 107.375 20.3837L111.271 11.344H116.803V20.3837C116.803 21.9803 116.747 23.65 116.634 25.3927H116.735L117.208 24.0435C118.028 21.7048 118.563 20.2544 118.81 19.6923L122.503 11.344H127.681L118.742 30.1993H113.177L113.076 21.4294C113.076 19.6866 113.132 17.7752 113.244 15.6952H113.143Z" fill="white" fill-opacity="0.21"/>
<path d="M150.112 5.54236L146.722 21.4968C146.081 24.4876 144.855 26.7419 143.045 28.2598C141.235 29.7776 138.879 30.5366 135.979 30.5366C133.595 30.5366 131.717 29.9013 130.346 28.6308C128.985 27.3491 128.305 25.6176 128.305 23.4363C128.305 22.6268 128.389 21.851 128.558 21.1089L131.864 5.54236H137.007L133.736 21.0415C133.544 21.8735 133.449 22.5762 133.449 23.1496C133.449 25.151 134.511 26.1516 136.636 26.1516C138.019 26.1516 139.116 25.7244 139.925 24.8699C140.735 24.0041 141.319 22.7167 141.679 21.0077L144.951 5.54236H150.112Z" fill="white" fill-opacity="0.21"/>
<path d="M158.612 17.1456H159.556C161.153 17.1456 162.406 16.7577 163.317 15.9819C164.239 15.2061 164.7 14.1661 164.7 12.8619C164.7 10.838 163.604 9.82612 161.411 9.82612H160.163L158.612 17.1456ZM169.878 12.7269C169.878 15.4366 168.922 17.5672 167.011 19.1188C165.11 20.6592 162.485 21.4294 159.135 21.4294H157.684L155.846 30.1993H150.702L155.913 5.54236H161.614C164.335 5.54236 166.392 6.14388 167.786 7.34694C169.181 8.53874 169.878 10.3321 169.878 12.7269Z" fill="white" fill-opacity="0.21"/>
<path d="M27.5965 10.1817H17.0568L20.9475 2.09886C21.3129 1.15233 20.2626 0.218262 18.8287 0.218262H5.67693C4.58095 0.218262 3.64937 0.772478 3.50324 1.51351L0.580634 16.4587C0.407104 17.3554 1.43002 18.1525 2.75432 18.1525H13.5954L9.38498 30.2643C9.05619 31.2108 10.1156 32.1013 11.513 32.1013C12.2802 32.1013 13.0108 31.8273 13.4127 31.354L29.487 12.4235C30.3364 11.4334 29.2861 10.1817 27.5965 10.1817Z" fill="white" fill-opacity="0.21"/>
</svg>
