<svg width="193" height="40" viewBox="0 0 193 40" fill="none" xmlns="http://www.w3.org/2000/svg">
<path d="M75.1176 31.5254H69.9062V20.8835H60.1413V31.5254H54.9131V6.86853H60.1413V16.5323H69.9062V6.86853H75.1176V31.5254Z" fill="white" fill-opacity="0.21"/>
<path d="M80.7337 7.79612C80.7337 6.12084 81.6669 5.2832 83.5333 5.2832C85.3997 5.2832 86.3329 6.12084 86.3329 7.79612C86.3329 8.5944 86.0968 9.21842 85.6246 9.66815C85.1636 10.1066 84.4665 10.3259 83.5333 10.3259C81.6669 10.3259 80.7337 9.48264 80.7337 7.79612ZM86.0968 31.5254H80.9529V12.6702H86.0968V31.5254Z" fill="white" fill-opacity="0.21"/>
<path d="M107.92 12.6702V15.2843L104.969 16.0432C105.509 16.8865 105.779 17.8309 105.779 18.8766C105.779 20.9004 105.07 22.4801 103.654 23.6157C102.248 24.74 100.292 25.3022 97.7844 25.3022L96.8568 25.2516L96.0979 25.1673C95.5695 25.572 95.3052 26.0218 95.3052 26.5165C95.3052 27.2586 96.2497 27.6296 98.1386 27.6296H101.343C103.412 27.6296 104.986 28.0737 106.065 28.9619C107.156 29.8502 107.701 31.1544 107.701 32.8747C107.701 35.0784 106.779 36.7874 104.935 38.0017C103.103 39.216 100.466 39.8231 97.0255 39.8231C94.3945 39.8231 92.3819 39.3621 90.9877 38.4402C89.6048 37.5295 88.9133 36.2477 88.9133 34.5949C88.9133 33.4593 89.2675 32.5093 89.9758 31.7447C90.6842 30.9801 91.7242 30.4348 93.0959 30.1088C92.5674 29.8839 92.1065 29.5185 91.7129 29.0125C91.3194 28.4953 91.1227 27.95 91.1227 27.3766C91.1227 26.657 91.3307 26.0611 91.7467 25.5889C92.1627 25.1054 92.7642 24.6332 93.5513 24.1722C92.5618 23.745 91.7748 23.0591 91.1901 22.1147C90.6167 21.1702 90.33 20.0571 90.33 18.7754C90.33 16.7178 90.999 15.1269 92.337 14.0025C93.6749 12.8782 95.5863 12.316 98.0711 12.316C98.5996 12.316 99.2236 12.3666 99.9432 12.4678C100.674 12.5577 101.141 12.6252 101.343 12.6702H107.92ZM93.3657 34.1901C93.3657 34.8985 93.703 35.455 94.3776 35.8598C95.0635 36.2646 96.0192 36.467 97.2447 36.467C99.0887 36.467 100.533 36.214 101.579 35.708C102.625 35.2021 103.148 34.5106 103.148 33.6336C103.148 32.9253 102.838 32.4362 102.22 32.1663C101.602 31.8965 100.646 31.7616 99.3529 31.7616H96.6882C95.7437 31.7616 94.9511 31.9808 94.3102 32.4193C93.6805 32.869 93.3657 33.4593 93.3657 34.1901ZM95.2378 18.8428C95.2378 19.866 95.4683 20.6755 95.9292 21.2714C96.4015 21.8673 97.1154 22.1653 98.0711 22.1653C99.0381 22.1653 99.7464 21.8673 100.196 21.2714C100.646 20.6755 100.871 19.866 100.871 18.8428C100.871 16.5716 99.9375 15.4361 98.0711 15.4361C96.1822 15.4361 95.2378 16.5716 95.2378 18.8428Z" fill="white" fill-opacity="0.21"/>
<path d="M128.445 31.5254H123.301V20.5125C123.301 17.7916 122.29 16.4311 120.266 16.4311C118.827 16.4311 117.787 16.9202 117.146 17.8984C116.505 18.8766 116.184 20.4619 116.184 22.6544V31.5254H111.04V5.2832H116.184V10.6295C116.184 11.0455 116.145 12.0237 116.066 13.564L115.948 15.0819H116.218C117.365 13.238 119.186 12.316 121.682 12.316C123.897 12.316 125.578 12.9119 126.725 14.1037C127.872 15.2955 128.445 17.0045 128.445 19.2307V31.5254Z" fill="white" fill-opacity="0.21"/>
<path d="M138.885 31.5254H133.741V5.2832H138.885V31.5254Z" fill="white" fill-opacity="0.21"/>
<path d="M148.397 22.0641C148.397 23.9305 148.7 25.3415 149.308 26.2972C149.926 27.2529 150.927 27.7308 152.31 27.7308C153.681 27.7308 154.665 27.2586 155.261 26.3141C155.868 25.3584 156.172 23.9417 156.172 22.0641C156.172 20.1977 155.868 18.7978 155.261 17.8646C154.654 16.9314 153.659 16.4648 152.276 16.4648C150.904 16.4648 149.915 16.9314 149.308 17.8646C148.7 18.7866 148.397 20.1864 148.397 22.0641ZM161.434 22.0641C161.434 25.1335 160.624 27.534 159.005 29.2655C157.386 30.997 155.132 31.8628 152.242 31.8628C150.432 31.8628 148.835 31.4692 147.452 30.6822C146.069 29.8839 145.007 28.7427 144.265 27.2586C143.523 25.7744 143.152 24.0429 143.152 22.0641C143.152 18.9834 143.956 16.5885 145.564 14.8795C147.171 13.1705 149.431 12.316 152.343 12.316C154.154 12.316 155.75 12.7095 157.133 13.4966C158.516 14.2836 159.578 15.4136 160.321 16.8865C161.063 18.3594 161.434 20.0852 161.434 22.0641Z" fill="white" fill-opacity="0.21"/>
<path d="M181.183 31.5254L179.732 24.9312L177.776 16.5997H177.658L174.217 31.5254H168.686L163.323 12.6702H168.45L170.625 21.0184C170.974 22.5138 171.328 24.577 171.688 27.208H171.789C171.834 26.3535 172.031 24.9986 172.379 23.1434L172.649 21.7099L174.976 12.6702H180.643L182.852 21.7099C182.897 21.9573 182.965 22.3227 183.055 22.8061C183.156 23.2896 183.252 23.8068 183.342 24.3577C183.432 24.8974 183.51 25.4315 183.578 25.9599C183.656 26.4771 183.701 26.8931 183.713 27.208H183.814C183.915 26.3984 184.095 25.2909 184.353 23.8855C184.612 22.4688 184.798 21.5131 184.91 21.0184L187.17 12.6702H192.213L186.782 31.5254H181.183Z" fill="white" fill-opacity="0.21"/>
<path d="M17.9342 35.5107C27.8389 35.5107 35.8684 27.7787 35.8684 18.2408C35.8684 8.70282 27.8389 0.970818 17.9342 0.970818C8.02945 0.970818 3.19678e-07 8.70289 2.05941e-07 18.2408C9.22034e-08 27.7787 8.02938 35.5107 17.9342 35.5107ZM31.2402 18.2408L4.62818 18.2408C4.62818 11.1584 10.5805 5.42758 17.9342 5.42758C25.289 5.42758 31.2402 11.1595 31.2402 18.2408Z" fill="white" fill-opacity="0.21"/>
</svg>
