<svg width="178" height="62" viewBox="0 0 178 62" fill="none" xmlns="http://www.w3.org/2000/svg">
<path d="M80.4647 36.8021H76.5079V28.3305C76.5079 27.284 76.3306 26.5013 75.976 25.9824C75.63 25.4548 75.0808 25.191 74.3284 25.191C73.3165 25.191 72.5813 25.5629 72.1229 26.3067C71.6645 27.0505 71.4353 28.2743 71.4353 29.9781V36.8021H67.4785V22.298H70.5013L71.0332 24.1532H71.2537C71.6429 23.4872 72.2051 22.9683 72.9402 22.5964C73.6754 22.2158 74.5186 22.0256 75.47 22.0256C77.6409 22.0256 79.1112 22.7348 79.8809 24.1532H80.2312C80.6204 23.4786 81.1912 22.9553 81.9436 22.5834C82.7047 22.2115 83.561 22.0256 84.5123 22.0256C86.1556 22.0256 87.3967 22.4494 88.2357 23.2969C89.0832 24.1359 89.507 25.4851 89.507 27.3446V36.8021H85.5372V28.3305C85.5372 27.284 85.3599 26.5013 85.0053 25.9824C84.6594 25.4548 84.1102 25.191 83.3577 25.191C82.3891 25.191 81.6626 25.537 81.1782 26.2289C80.7025 26.9208 80.4647 28.0192 80.4647 29.5241V36.8021Z" fill="white" fill-opacity="0.21"/>
<path d="M102.792 36.8021L102.026 34.8301H101.922C101.256 35.6691 100.569 36.2529 99.8597 36.5815C99.1591 36.9015 98.2423 37.0615 97.1094 37.0615C95.7169 37.0615 94.6185 36.6637 93.8142 35.868C93.0185 35.0723 92.6206 33.9393 92.6206 32.469C92.6206 30.9295 93.1568 29.7965 94.2293 29.07C95.3104 28.3349 96.9364 27.9284 99.1072 27.8505L101.624 27.7727V27.137C101.624 25.6667 100.872 24.9316 99.3667 24.9316C98.2078 24.9316 96.8456 25.2818 95.2801 25.9824L93.9698 23.3099C95.6391 22.4364 97.4899 21.9996 99.5224 21.9996C101.468 21.9996 102.96 22.4234 103.998 23.271C105.036 24.1186 105.555 25.4072 105.555 27.137V36.8021H102.792ZM101.624 30.0819L100.093 30.1338C98.9429 30.1684 98.0867 30.376 97.5245 30.7565C96.9623 31.1371 96.6812 31.7166 96.6812 32.495C96.6812 33.6107 97.3212 34.1685 98.6013 34.1685C99.518 34.1685 100.249 33.9047 100.794 33.3771C101.347 32.8496 101.624 32.149 101.624 31.2755V30.0819Z" fill="white" fill-opacity="0.21"/>
<path d="M123.03 36.8021H119.073V28.3305C119.073 27.284 118.887 26.5013 118.515 25.9824C118.143 25.4548 117.551 25.191 116.738 25.191C115.631 25.191 114.831 25.5629 114.338 26.3067C113.845 27.0419 113.598 28.2657 113.598 29.9781V36.8021H109.641V22.298H112.664L113.196 24.1532H113.417C113.858 23.4526 114.463 22.925 115.233 22.5704C116.011 22.2072 116.894 22.0256 117.879 22.0256C119.566 22.0256 120.846 22.4839 121.72 23.4007C122.593 24.3088 123.03 25.6235 123.03 27.3446V36.8021Z" fill="white" fill-opacity="0.21"/>
<path d="M133.214 33.909C133.906 33.909 134.736 33.7577 135.705 33.455V36.3999C134.719 36.841 133.508 37.0615 132.072 37.0615C130.489 37.0615 129.335 36.6637 128.608 35.868C127.89 35.0637 127.532 33.8615 127.532 32.2614V25.2689H125.637V23.5953L127.817 22.272L128.959 19.2104H131.488V22.298H135.549V25.2689H131.488V32.2614C131.488 32.8236 131.644 33.2388 131.955 33.5069C132.275 33.775 132.695 33.909 133.214 33.909Z" fill="white" fill-opacity="0.21"/>
<path d="M152.038 36.8021H148.081V28.3305C148.081 26.2375 147.303 25.191 145.746 25.191C144.639 25.191 143.839 25.5673 143.346 26.3197C142.853 27.0721 142.606 28.2916 142.606 29.9781V36.8021H138.65V16.6157H142.606V20.7282C142.606 21.0482 142.576 21.8007 142.516 22.9856L142.425 24.1532H142.632C143.515 22.7348 144.916 22.0256 146.836 22.0256C148.54 22.0256 149.833 22.4839 150.715 23.4007C151.597 24.3175 152.038 25.6321 152.038 27.3446V36.8021Z" fill="white" fill-opacity="0.21"/>
<path d="M166.386 36.8021L165.854 34.9469H165.647C165.223 35.6215 164.622 36.1448 163.844 36.5167C163.065 36.8799 162.179 37.0615 161.184 37.0615C159.48 37.0615 158.196 36.6075 157.331 35.6993C156.466 34.7826 156.034 33.4679 156.034 31.7555V22.298H159.991V30.7695C159.991 31.816 160.177 32.6031 160.548 33.1306C160.92 33.6496 161.513 33.909 162.326 33.909C163.433 33.909 164.233 33.5415 164.726 32.8063C165.219 32.0625 165.465 30.8344 165.465 29.1219V22.298H169.422V36.8021H166.386Z" fill="white" fill-opacity="0.21"/>
<path d="M177.53 36.8021H173.574V16.6157H177.53V36.8021Z" fill="white" fill-opacity="0.21"/>
<path d="M0.308346 26.1743C0.308346 22.8597 0.961217 19.5775 2.22968 16.5151C3.49814 13.4528 5.35736 10.6702 7.70118 8.32643C10.045 5.98261 12.8275 4.1234 15.8899 2.85493C18.9522 1.58647 22.2344 0.933599 25.5491 0.933599C28.8637 0.933599 32.1459 1.58647 35.2083 2.85494C38.2706 4.1234 41.0531 5.98262 43.3969 8.32643C45.7408 10.6703 47.6 13.4528 48.8684 16.5151C50.1369 19.5775 50.7898 22.8597 50.7898 26.1743L38.1694 26.1743C38.1694 24.517 37.843 22.8759 37.2087 21.3447C36.5745 19.8135 35.6449 18.4223 34.473 17.2504C33.3011 16.0785 31.9098 15.1489 30.3787 14.5146C28.8475 13.8804 27.2064 13.554 25.5491 13.554C23.8917 13.554 22.2506 13.8804 20.7195 14.5146C19.1883 15.1489 17.797 16.0785 16.6251 17.2504C15.4532 18.4223 14.5236 19.8135 13.8894 21.3447C13.2551 22.8759 12.9287 24.517 12.9287 26.1743L0.308346 26.1743Z" fill="white" fill-opacity="0.21"/>
<path fill-rule="evenodd" clip-rule="evenodd" d="M16.9066 47.039C14.9887 46.2446 13.1934 45.1911 11.5695 43.9113L16.7897 38.6911C17.6976 39.3264 18.6741 39.8626 19.7027 40.2887C21.5562 41.0564 23.5428 41.4516 25.5491 41.4516C27.5553 41.4516 29.5419 41.0564 31.3954 40.2887C32.424 39.8626 33.4005 39.3264 34.3084 38.6911L39.5286 43.9113C37.9047 45.1911 36.1095 46.2446 34.1915 47.039C31.4515 48.174 28.5148 48.7581 25.5491 48.7581C22.5833 48.7581 19.6466 48.174 16.9066 47.039ZM41.4191 45.8018C42.1079 45.2448 42.7682 44.6509 43.3969 44.0222L34.473 35.0983C33.3011 36.2702 31.9098 37.1998 30.3787 37.834C28.8475 38.4682 27.2064 38.7947 25.5491 38.7947C23.8917 38.7947 22.2506 38.4682 20.7195 37.834C19.1883 37.1998 17.797 36.2702 16.6251 35.0983L7.70118 44.0222C8.32993 44.6509 8.99024 45.2448 9.67906 45.8018C11.558 47.321 13.649 48.5655 15.8899 49.4937C18.9522 50.7622 22.2344 51.415 25.5491 51.415C28.8637 51.415 32.1459 50.7622 35.2083 49.4937C37.4491 48.5655 39.5401 47.321 41.4191 45.8018Z" fill="white" fill-opacity="0.21"/>
</svg>
