<svg width="185" height="52" viewBox="0 0 185 52" fill="none" xmlns="http://www.w3.org/2000/svg">
<path d="M84.8515 27.278C84.8515 29.5094 84.4536 31.3819 83.6579 32.8954C82.8709 34.4003 81.7119 35.5031 80.1811 36.2036L84.7477 41.3021H79.5973L76.1205 37.0469H75.8221C72.9161 37.0469 70.6847 36.2036 69.1279 34.5171C67.5711 32.8306 66.7927 30.4089 66.7927 27.2521C66.7927 24.0953 67.5711 21.6866 69.1279 20.026C70.6933 18.3568 72.9334 17.5222 75.848 17.5222C78.7627 17.5222 80.9898 18.3611 82.5293 20.039C84.0774 21.7169 84.8515 24.1299 84.8515 27.278ZM71.009 27.278C71.009 29.397 71.4112 30.9927 72.2155 32.0652C73.0199 33.1376 74.2221 33.6738 75.8221 33.6738C79.0308 33.6738 80.6352 31.5419 80.6352 27.278C80.6352 23.0055 79.0395 20.8693 75.848 20.8693C74.248 20.8693 73.0415 21.4098 72.2285 22.4909C71.4155 23.5634 71.009 25.1591 71.009 27.278Z" fill="white" fill-opacity="0.21"/>
<path d="M98.7458 36.7874L98.2139 34.9322H98.0063C97.5825 35.6069 96.9814 36.1301 96.203 36.502C95.4246 36.8653 94.5381 37.0469 93.5435 37.0469C91.8397 37.0469 90.5554 36.5928 89.6905 35.6847C88.8256 34.7679 88.3931 33.4533 88.3931 31.7408V22.2833H92.35V30.7549C92.35 31.8014 92.5359 32.5884 92.9078 33.116C93.2797 33.6349 93.8722 33.8944 94.6852 33.8944C95.7922 33.8944 96.5922 33.5268 97.0852 32.7917C97.5782 32.0479 97.8247 30.8197 97.8247 29.1073V22.2833H101.782V36.7874H98.7458Z" fill="white" fill-opacity="0.21"/>
<path d="M111.94 24.8261C111.101 24.8261 110.443 25.0942 109.968 25.6304C109.492 26.158 109.22 26.9105 109.15 27.8878H114.703C114.686 26.9105 114.43 26.158 113.937 25.6304C113.444 25.0942 112.778 24.8261 111.94 24.8261ZM112.497 37.0469C110.162 37.0469 108.337 36.4025 107.023 35.1139C105.708 33.8252 105.051 32.0003 105.051 29.6392C105.051 27.2088 105.656 25.3321 106.867 24.0088C108.087 22.6769 109.769 22.0109 111.914 22.0109C113.963 22.0109 115.559 22.5947 116.701 23.7623C117.842 24.9299 118.413 26.5429 118.413 28.6013V30.5213H109.06C109.103 31.6457 109.436 32.5235 110.058 33.1549C110.681 33.7863 111.555 34.102 112.679 34.102C113.553 34.102 114.379 34.0111 115.157 33.8295C115.935 33.6479 116.748 33.3582 117.596 32.9603V36.022C116.904 36.3679 116.165 36.6231 115.377 36.7874C114.59 36.9604 113.63 37.0469 112.497 37.0469Z" fill="white" fill-opacity="0.21"/>
<path d="M135.019 36.7874H131.062V28.3159C131.062 27.2694 130.876 26.4867 130.504 25.9677C130.132 25.4402 129.54 25.1764 128.727 25.1764C127.62 25.1764 126.82 25.5483 126.327 26.2921C125.834 27.0272 125.587 28.251 125.587 29.9635V36.7874H121.631V22.2833H124.653L125.185 24.1385H125.406C125.847 23.438 126.452 22.9104 127.222 22.5558C128 22.1925 128.883 22.0109 129.869 22.0109C131.555 22.0109 132.835 22.4693 133.709 23.3861C134.582 24.2942 135.019 25.6088 135.019 27.3299V36.7874Z" fill="white" fill-opacity="0.21"/>
<path d="M148.304 36.7874L147.538 34.8155H147.434C146.768 35.6544 146.081 36.2382 145.372 36.5669C144.671 36.8869 143.754 37.0469 142.621 37.0469C141.229 37.0469 140.13 36.649 139.326 35.8533C138.53 35.0577 138.133 33.9247 138.133 32.4544C138.133 30.9149 138.669 29.7819 139.741 29.0554C140.822 28.3202 142.448 27.9137 144.619 27.8359L147.136 27.758V27.1224C147.136 25.6521 146.383 24.9169 144.879 24.9169C143.72 24.9169 142.357 25.2672 140.792 25.9677L139.482 23.2953C141.151 22.4217 143.002 21.985 145.034 21.985C146.98 21.985 148.472 22.4088 149.51 23.2563C150.548 24.1039 151.067 25.3926 151.067 27.1224V36.7874H148.304ZM147.136 30.0673L145.605 30.1192C144.455 30.1538 143.599 30.3613 143.036 30.7419C142.474 31.1224 142.193 31.7019 142.193 32.4803C142.193 33.596 142.833 34.1539 144.113 34.1539C145.03 34.1539 145.761 33.8901 146.306 33.3625C146.859 32.8349 147.136 32.1344 147.136 31.2608V30.0673Z" fill="white" fill-opacity="0.21"/>
<path d="M154.596 34.9322C154.596 34.2057 154.79 33.6565 155.179 33.2846C155.569 32.9127 156.135 32.7268 156.879 32.7268C157.597 32.7268 158.15 32.9171 158.539 33.2976C158.937 33.6782 159.136 34.223 159.136 34.9322C159.136 35.6155 158.937 36.1561 158.539 36.5539C158.142 36.9431 157.588 37.1377 156.879 37.1377C156.152 37.1377 155.59 36.9474 155.192 36.5669C154.794 36.1777 154.596 35.6328 154.596 34.9322Z" fill="white" fill-opacity="0.21"/>
<path d="M162.561 18.5341C162.561 17.2454 163.279 16.6011 164.715 16.6011C166.15 16.6011 166.868 17.2454 166.868 18.5341C166.868 19.1482 166.687 19.6282 166.323 19.9741C165.969 20.3114 165.433 20.4801 164.715 20.4801C163.279 20.4801 162.561 19.8314 162.561 18.5341ZM166.687 36.7874H162.73V22.2833H166.687V36.7874Z" fill="white" fill-opacity="0.21"/>
<path d="M174.003 29.5094C174.003 30.9451 174.237 32.0306 174.704 32.7657C175.18 33.5009 175.949 33.8684 177.013 33.8684C178.068 33.8684 178.825 33.5052 179.284 32.7787C179.751 32.0435 179.984 30.9538 179.984 29.5094C179.984 28.0737 179.751 26.997 179.284 26.2791C178.817 25.5612 178.051 25.2023 176.987 25.2023C175.932 25.2023 175.171 25.5612 174.704 26.2791C174.237 26.9883 174.003 28.0651 174.003 29.5094ZM184.032 29.5094C184.032 31.8706 183.409 33.7171 182.164 35.049C180.918 36.3809 179.184 37.0469 176.961 37.0469C175.569 37.0469 174.341 36.7442 173.277 36.1388C172.213 35.5247 171.396 34.6468 170.825 33.5052C170.254 32.3635 169.969 31.0316 169.969 29.5094C169.969 27.1397 170.587 25.2975 171.824 23.9828C173.061 22.6682 174.799 22.0109 177.039 22.0109C178.432 22.0109 179.66 22.3136 180.724 22.919C181.787 23.5245 182.605 24.3937 183.176 25.5267C183.746 26.6596 184.032 27.9872 184.032 29.5094Z" fill="white" fill-opacity="0.21"/>
<path d="M50.6357 26.1597C50.6357 40.0997 39.3351 51.4004 25.395 51.4004C11.4549 51.4004 0.154297 40.0997 0.154297 26.1597C0.154297 12.2196 11.4549 0.918945 25.395 0.918945C39.3351 0.918945 50.6357 12.2196 50.6357 26.1597Z" fill="white" fill-opacity="0.21"/>
<path d="M37.3513 32.8019C35.8557 32.8019 35.6828 31.1413 33.3748 31.1413C31.0567 31.1413 30.8755 32.8019 29.385 32.8019C27.9067 32.8019 27.7061 31.1413 25.3952 31.1413C23.1084 31.1413 22.8749 32.8019 21.4187 32.8019C19.9163 32.8019 19.7532 31.1413 17.4288 31.1413C15.1045 31.1413 14.9387 32.8019 13.439 32.8019V28.6504C13.439 27.2753 14.5866 26.1596 16.0011 26.1596H16.8551V18.687H20.2711V26.1596H23.6871V18.687H27.1032V26.1596H30.5192V18.687H33.9352V26.1596H34.7892C36.2037 26.1596 37.3513 27.2753 37.3513 28.6504V32.8019ZM37.3513 39.4442H13.439V34.4625C15.7532 34.4625 15.9352 32.8019 17.4288 32.8019C18.9207 32.8019 19.097 34.4625 21.4187 34.4625C23.7054 34.4625 23.9389 32.8019 25.3952 32.8019C26.8976 32.8019 27.0605 34.4625 29.385 34.4625C31.6992 34.4625 31.8812 32.8019 33.3748 32.8019C34.842 32.8019 35.0429 34.4625 37.3513 34.4625V39.4442ZM18.5631 17.8567C17.6157 17.8567 16.8551 17.1172 16.8551 16.1961C16.8551 14.5875 18.5631 15.0026 18.5631 12.875C19.2036 12.875 20.2711 14.4058 20.2711 15.781C20.2711 17.1562 19.5105 17.8567 18.5631 17.8567ZM25.3952 17.8567C24.4477 17.8567 23.6871 17.1172 23.6871 16.1961C23.6871 14.5875 25.3952 15.0026 25.3952 12.875C26.0357 12.875 27.1032 14.4058 27.1032 15.781C27.1032 17.1562 26.3426 17.8567 25.3952 17.8567ZM32.2272 17.8567C31.2798 17.8567 30.5192 17.1172 30.5192 16.1961C30.5192 14.5875 32.2272 15.0026 32.2272 12.875C32.8677 12.875 33.9352 14.4058 33.9352 15.781C33.9352 17.1562 33.1746 17.8567 32.2272 17.8567Z" fill="black"/>
</svg>
